<?xml version="1.0" encoding="UTF-8" standalone="no"?>
<!-- Created with Inkscape (http://www.inkscape.org/) -->

<svg
   width="1424mm"
   height="617.22101mm"
   viewBox="0 0 1424 617.22101"
   version="1.1"
   id="svg1"
   sodipodi:docname="2L off.svg"
   inkscape:version="1.3.2 (091e20e, 2023-11-25)"
   xml:space="preserve"
   xmlns:inkscape="http://www.inkscape.org/namespaces/inkscape"
   xmlns:sodipodi="http://sodipodi.sourceforge.net/DTD/sodipodi-0.dtd"
   xmlns="http://www.w3.org/2000/svg"
   xmlns:svg="http://www.w3.org/2000/svg"><sodipodi:namedview
     id="namedview1"
     pagecolor="#ffffff"
     bordercolor="#000000"
     borderopacity="0.25"
     inkscape:showpageshadow="2"
     inkscape:pageopacity="0.0"
     inkscape:pagecheckerboard="0"
     inkscape:deskcolor="#d1d1d1"
     inkscape:document-units="mm"
     showgrid="true"
     inkscape:lockguides="false"
     inkscape:zoom="0.23045307"
     inkscape:cx="451.28494"
     inkscape:cy="948.1323"
     inkscape:window-width="1512"
     inkscape:window-height="916"
     inkscape:window-x="0"
     inkscape:window-y="38"
     inkscape:window-maximized="0"
     inkscape:current-layer="layer1"
     showguides="false"
     inkscape:export-bgcolor="#ffffff00"
     inkscape:clip-to-page="false"><inkscape:grid
       id="grid1"
       units="mm"
       originx="-412"
       originy="-107.77903"
       spacingx="0.99999998"
       spacingy="1"
       empcolor="#0099e5"
       empopacity="0.30196078"
       color="#0099e5"
       opacity="0.14901961"
       empspacing="5"
       dotted="false"
       gridanglex="30"
       gridanglez="30"
       visible="true"
       snapvisiblegridlinesonly="false" /><inkscape:page
       x="0"
       y="0"
       width="1424"
       height="617.22101"
       id="page69"
       margin="0"
       bleed="0"
       inkscape:export-filename="pdfs/2L off.pdf"
       inkscape:export-xdpi="96"
       inkscape:export-ydpi="96" /></sodipodi:namedview><defs
     id="defs1"><inkscape:perspective
       sodipodi:type="inkscape:persp3d"
       inkscape:vp_x="0 : 402.22104 : 1"
       inkscape:vp_y="0 : 1000 : 0"
       inkscape:vp_z="753.99994 : 402.22104 : 1"
       inkscape:persp3d-origin="376.99998 : 330.55435 : 1"
       id="perspective119" /><marker
       style="overflow:visible"
       id="Triangle"
       refX="0"
       refY="0"
       orient="auto-start-reverse"
       inkscape:stockid="Triangle arrow"
       markerWidth="0.5"
       markerHeight="0.5"
       viewBox="0 0 1 1"
       inkscape:isstock="true"
       inkscape:collect="always"
       preserveAspectRatio="xMidYMid"><path
         transform="scale(0.5)"
         style="fill:context-stroke;fill-rule:evenodd;stroke:context-stroke;stroke-width:1pt"
         d="M 5.77,0 -2.88,5 V -5 Z"
         id="path135" /></marker><inkscape:path-effect
       effect="fillet_chamfer"
       id="path-effect69"
       is_visible="true"
       lpeversion="1"
       nodesatellites_param="F,0,0,1,0,0,0,1 @ F,0,0,1,0,4.9999972,0,1 @ F,0,0,1,0,4.9999999,0,1 @ F,0,0,1,0,0,0,1"
       radius="0"
       unit="px"
       method="auto"
       mode="F"
       chamfer_steps="1"
       flexible="false"
       use_knot_distance="true"
       apply_no_radius="true"
       apply_with_radius="true"
       only_selected="false"
       hide_knots="false" /><inkscape:path-effect
       effect="fillet_chamfer"
       id="path-effect61"
       is_visible="true"
       lpeversion="1"
       nodesatellites_param="F,0,0,1,0,0,0,1 @ F,0,0,1,0,5.0000035,0,1 @ F,0,0,1,0,4.9999999,0,1 @ F,0,0,1,0,0,0,1 @ F,0,0,1,0,0,0,1"
       radius="0"
       unit="px"
       method="auto"
       mode="F"
       chamfer_steps="1"
       flexible="false"
       use_knot_distance="true"
       apply_no_radius="true"
       apply_with_radius="true"
       only_selected="false"
       hide_knots="false" /><inkscape:path-effect
       effect="fillet_chamfer"
       id="path-effect41"
       is_visible="true"
       lpeversion="1"
       nodesatellites_param="F,0,0,1,0,5.190373,0,1 @ F,0,0,1,0,6.3479265,0,1 @ F,0,0,1,0,7.6462366,0,1 @ F,0,0,1,0,3.9998596,0,1 @ F,0,0,1,0,3.9469852,0,1 @ F,0,1,1,0,5.0492011,0,1 @ F,0,0,1,0,5.0492011,0,1 @ F,0,0,1,0,4.0000375,0,1"
       radius="0"
       unit="px"
       method="auto"
       mode="F"
       chamfer_steps="1"
       flexible="false"
       use_knot_distance="true"
       apply_no_radius="true"
       apply_with_radius="true"
       only_selected="false"
       hide_knots="false" /><inkscape:path-effect
       effect="fillet_chamfer"
       id="path-effect40"
       is_visible="true"
       lpeversion="1"
       nodesatellites_param="F,0,0,1,0,6.0000022,0,1 @ F,0,0,1,0,5.0000003,0,1 @ F,0,0,1,0,5.4107123,0,1 @ F,0,0,1,0,4.2166898,0,1 @ F,0,0,1,0,4.2166898,0,1"
       radius="0"
       unit="px"
       method="auto"
       mode="F"
       chamfer_steps="1"
       flexible="false"
       use_knot_distance="true"
       apply_no_radius="true"
       apply_with_radius="true"
       only_selected="false"
       hide_knots="false" /><linearGradient
       id="swatch2"
       inkscape:swatch="solid"><stop
         style="stop-color:#000000;stop-opacity:1;"
         offset="0"
         id="stop2" /></linearGradient><clipPath
       clipPathUnits="userSpaceOnUse"
       id="clipPath2"><path
         d="M 0,0 H 53 V 41 H 0 Z"
         transform="matrix(0.27777778,0,0,-0.27777778,0.18144444,2.5421666)"
         id="path2" /></clipPath><clipPath
       clipPathUnits="userSpaceOnUse"
       id="clipPath4"><path
         d="M 0,0 H 53 V 41 H 0 Z"
         transform="matrix(0.27777778,0,0,-0.27777778,-4.6235556,6.6551666)"
         id="path4" /></clipPath><clipPath
       clipPathUnits="userSpaceOnUse"
       id="clipPath6"><path
         d="M 0,0 H 53 V 41 H 0 Z"
         transform="matrix(0.27777778,0,0,-0.27777778,-4.2665556,0.0791666)"
         id="path6" /></clipPath><clipPath
       clipPathUnits="userSpaceOnUse"
       id="clipPath6-9"><path
         d="M 0,0 H 286 V 42 H 0 Z"
         transform="matrix(0.27777778,0,0,-0.27777778,-4.262889,0.35694437)"
         id="path6-0" /></clipPath><clipPath
       clipPathUnits="userSpaceOnUse"
       id="clipPath2-2"><path
         d="M 0,0 H 286 V 42 H 0 Z"
         transform="matrix(0.27777778,0,0,-0.27777778,0.18411111,2.8199444)"
         id="path2-7" /></clipPath><clipPath
       clipPathUnits="userSpaceOnUse"
       id="clipPath4-3"><path
         d="M 0,0 H 286 V 42 H 0 Z"
         transform="matrix(0.27777778,0,0,-0.27777778,-4.619889,6.9329444)"
         id="path4-7" /></clipPath><clipPath
       clipPathUnits="userSpaceOnUse"
       id="clipPath8"><path
         d="M 0,0 H 286 V 42 H 0 Z"
         transform="matrix(0.27777778,0,0,-0.27777778,-15.396889,2.8199444)"
         id="path8" /></clipPath><clipPath
       clipPathUnits="userSpaceOnUse"
       id="clipPath12"><path
         d="M 0,0 H 286 V 42 H 0 Z"
         transform="matrix(0.27777778,0,0,-0.27777778,-19.843889,0.35694437)"
         id="path12" /></clipPath><clipPath
       clipPathUnits="userSpaceOnUse"
       id="clipPath10"><path
         d="M 0,0 H 286 V 42 H 0 Z"
         transform="matrix(0.27777778,0,0,-0.27777778,-20.201889,6.9329444)"
         id="path10-6" /></clipPath><clipPath
       clipPathUnits="userSpaceOnUse"
       id="clipPath2-7"><path
         d="M 0,0 H 416 V 42 H 0 Z"
         transform="matrix(0.27777778,0,0,-0.27777778,0.19411111,2.8199444)"
         id="path2-1" /></clipPath><clipPath
       clipPathUnits="userSpaceOnUse"
       id="clipPath4-38"><path
         d="M 0,0 H 416 V 42 H 0 Z"
         transform="matrix(0.27777778,0,0,-0.27777778,-4.610889,6.9329444)"
         id="path4-4" /></clipPath><clipPath
       clipPathUnits="userSpaceOnUse"
       id="clipPath6-8"><path
         d="M 0,0 H 416 V 42 H 0 Z"
         transform="matrix(0.27777778,0,0,-0.27777778,-4.252889,0.35694437)"
         id="path6-04" /></clipPath><clipPath
       clipPathUnits="userSpaceOnUse"
       id="clipPath8-6"><path
         d="M 0,0 H 416 V 42 H 0 Z"
         transform="matrix(0.27777778,0,0,-0.27777778,-15.386889,2.8199444)"
         id="path8-0" /></clipPath><clipPath
       clipPathUnits="userSpaceOnUse"
       id="clipPath10-3"><path
         d="M 0,0 H 416 V 42 H 0 Z"
         transform="matrix(0.27777778,0,0,-0.27777778,-20.191889,6.9329444)"
         id="path10-2" /></clipPath><clipPath
       clipPathUnits="userSpaceOnUse"
       id="clipPath12-6"><path
         d="M 0,0 H 416 V 42 H 0 Z"
         transform="matrix(0.27777778,0,0,-0.27777778,-19.834889,0.35694437)"
         id="path12-9" /></clipPath><clipPath
       clipPathUnits="userSpaceOnUse"
       id="clipPath14"><path
         d="M 0,0 H 416 V 42 H 0 Z"
         transform="matrix(0.27777778,0,0,-0.27777778,-30.96889,2.8199444)"
         id="path14-4" /></clipPath><clipPath
       clipPathUnits="userSpaceOnUse"
       id="clipPath16"><path
         d="M 0,0 H 416 V 42 H 0 Z"
         transform="matrix(0.27777778,0,0,-0.27777778,-35.77389,6.9329444)"
         id="path16" /></clipPath><clipPath
       clipPathUnits="userSpaceOnUse"
       id="clipPath18"><path
         d="M 0,0 H 416 V 42 H 0 Z"
         transform="matrix(0.27777778,0,0,-0.27777778,-35.41589,0.35694437)"
         id="path18" /></clipPath><clipPath
       clipPathUnits="userSpaceOnUse"
       id="clipPath20"><path
         d="M 0,0 H 416 V 42 H 0 Z"
         transform="matrix(0.27777778,0,0,-0.27777778,-46.29389,2.8199444)"
         id="path20-1" /></clipPath><clipPath
       clipPathUnits="userSpaceOnUse"
       id="clipPath22"><path
         d="M 0,0 H 416 V 42 H 0 Z"
         transform="matrix(0.27777778,0,0,-0.27777778,-51.09889,6.9329444)"
         id="path22" /></clipPath><clipPath
       clipPathUnits="userSpaceOnUse"
       id="clipPath24"><path
         d="M 0,0 H 416 V 42 H 0 Z"
         transform="matrix(0.27777778,0,0,-0.27777778,-50.74089,0.35694437)"
         id="path24" /></clipPath><clipPath
       clipPathUnits="userSpaceOnUse"
       id="clipPath26"><path
         d="M 0,0 H 416 V 42 H 0 Z"
         transform="matrix(0.27777778,0,0,-0.27777778,-61.61889,2.8199444)"
         id="path26" /></clipPath><clipPath
       clipPathUnits="userSpaceOnUse"
       id="clipPath28"><path
         d="M 0,0 H 416 V 42 H 0 Z"
         transform="matrix(0.27777778,0,0,-0.27777778,-66.42389,6.9329444)"
         id="path28" /></clipPath><clipPath
       clipPathUnits="userSpaceOnUse"
       id="clipPath30"><path
         d="M 0,0 H 416 V 42 H 0 Z"
         transform="matrix(0.27777778,0,0,-0.27777778,-66.06589,0.35694437)"
         id="path30" /></clipPath><clipPath
       clipPathUnits="userSpaceOnUse"
       id="clipPath32"><path
         d="M 0,0 H 416 V 42 H 0 Z"
         transform="matrix(0.27777778,0,0,-0.27777778,-71.83789,2.8199444)"
         id="path32" /></clipPath><clipPath
       clipPathUnits="userSpaceOnUse"
       id="clipPath34"><path
         d="M 0,0 H 416 V 42 H 0 Z"
         transform="matrix(0.27777778,0,0,-0.27777778,-76.64289,6.9329444)"
         id="path34" /></clipPath><clipPath
       clipPathUnits="userSpaceOnUse"
       id="clipPath36"><path
         d="M 0,0 H 416 V 42 H 0 Z"
         transform="matrix(0.27777778,0,0,-0.27777778,-76.28489,0.35694437)"
         id="path36" /></clipPath><clipPath
       clipPathUnits="userSpaceOnUse"
       id="clipPath38"><path
         d="M 0,0 H 416 V 42 H 0 Z"
         transform="matrix(0.27777778,0,0,-0.27777778,-82.05689,2.8199444)"
         id="path38" /></clipPath><clipPath
       clipPathUnits="userSpaceOnUse"
       id="clipPath40"><path
         d="M 0,0 H 416 V 42 H 0 Z"
         transform="matrix(0.27777778,0,0,-0.27777778,-86.86189,6.9329444)"
         id="path40-3" /></clipPath><clipPath
       clipPathUnits="userSpaceOnUse"
       id="clipPath42"><path
         d="M 0,0 H 416 V 42 H 0 Z"
         transform="matrix(0.27777778,0,0,-0.27777778,-86.50389,0.35694437)"
         id="path42" /></clipPath><clipPath
       clipPathUnits="userSpaceOnUse"
       id="clipPath44"><path
         d="M 0,0 H 416 V 42 H 0 Z"
         transform="matrix(0.27777778,0,0,-0.27777778,-93.17689,2.8199444)"
         id="path44" /></clipPath><clipPath
       clipPathUnits="userSpaceOnUse"
       id="clipPath46"><path
         d="M 0,0 H 416 V 42 H 0 Z"
         transform="matrix(0.27777778,0,0,-0.27777778,-97.98189,6.9329444)"
         id="path46" /></clipPath><clipPath
       clipPathUnits="userSpaceOnUse"
       id="clipPath48"><path
         d="M 0,0 H 416 V 42 H 0 Z"
         transform="matrix(0.27777778,0,0,-0.27777778,-97.62489,0.35694437)"
         id="path48" /></clipPath><clipPath
       clipPathUnits="userSpaceOnUse"
       id="clipPath50"><path
         d="M 0,0 H 416 V 42 H 0 Z"
         transform="matrix(0.27777778,0,0,-0.27777778,-104.29789,2.8199444)"
         id="path50" /></clipPath><clipPath
       clipPathUnits="userSpaceOnUse"
       id="clipPath52"><path
         d="M 0,0 H 416 V 42 H 0 Z"
         transform="matrix(0.27777778,0,0,-0.27777778,-108.74489,1.3249444)"
         id="path52" /></clipPath><clipPath
       clipPathUnits="userSpaceOnUse"
       id="clipPath32-2"><path
         d="M 0,0 H 416 V 42 H 0 Z"
         transform="matrix(0.27777778,0,0,-0.27777778,-71.83789,2.8199444)"
         id="path32-9" /></clipPath><clipPath
       clipPathUnits="userSpaceOnUse"
       id="clipPath34-8"><path
         d="M 0,0 H 416 V 42 H 0 Z"
         transform="matrix(0.27777778,0,0,-0.27777778,-76.64289,6.9329444)"
         id="path34-2" /></clipPath><clipPath
       clipPathUnits="userSpaceOnUse"
       id="clipPath36-0"><path
         d="M 0,0 H 416 V 42 H 0 Z"
         transform="matrix(0.27777778,0,0,-0.27777778,-76.28489,0.35694437)"
         id="path36-7" /></clipPath><clipPath
       clipPathUnits="userSpaceOnUse"
       id="clipPath50-1"><path
         d="M 0,0 H 416 V 42 H 0 Z"
         transform="matrix(0.27777778,0,0,-0.27777778,-104.29789,2.8199444)"
         id="path50-0" /></clipPath><clipPath
       clipPathUnits="userSpaceOnUse"
       id="clipPath52-1"><path
         d="M 0,0 H 416 V 42 H 0 Z"
         transform="matrix(0.27777778,0,0,-0.27777778,-108.74489,1.3249444)"
         id="path52-8" /></clipPath><clipPath
       clipPathUnits="userSpaceOnUse"
       id="clipPath54"><path
         d="M 0,0 H 569 V 42 H 0 Z"
         transform="matrix(0.27777778,0,0,-0.27777778,-116.35067,2.8199444)"
         id="path54" /></clipPath><clipPath
       clipPathUnits="userSpaceOnUse"
       id="clipPath56"><path
         d="M 0,0 H 569 V 42 H 0 Z"
         transform="matrix(0.27777778,0,0,-0.27777778,-120.84567,1.3249444)"
         id="path56" /></clipPath><clipPath
       clipPathUnits="userSpaceOnUse"
       id="clipPath58"><path
         d="M 0,0 H 569 V 42 H 0 Z"
         transform="matrix(0.27777778,0,0,-0.27777778,-126.26867,2.8199444)"
         id="path58" /></clipPath><clipPath
       clipPathUnits="userSpaceOnUse"
       id="clipPath60"><path
         d="M 0,0 H 569 V 42 H 0 Z"
         transform="matrix(0.27777778,0,0,-0.27777778,-130.76367,1.3249444)"
         id="path60" /></clipPath><inkscape:path-effect
       effect="fillet_chamfer"
       id="path-effect61-2"
       is_visible="true"
       lpeversion="1"
       nodesatellites_param="F,0,0,1,0,0,0,1 @ F,0,0,1,0,5.0000035,0,1 @ F,0,0,1,0,4.9999999,0,1 @ F,0,0,1,0,0,0,1 @ F,0,0,1,0,0,0,1"
       radius="0"
       unit="px"
       method="auto"
       mode="F"
       chamfer_steps="1"
       flexible="false"
       use_knot_distance="true"
       apply_no_radius="true"
       apply_with_radius="true"
       only_selected="false"
       hide_knots="false" /><clipPath
       clipPathUnits="userSpaceOnUse"
       id="clipPath52-1-3"><path
         d="M 0,0 H 569 V 42 H 0 Z"
         transform="matrix(0.27777778,0,0,-0.27777778,-108.79467,1.3249444)"
         id="path52-4" /></clipPath><clipPath
       clipPathUnits="userSpaceOnUse"
       id="clipPath50-8"><path
         d="M 0,0 H 569 V 42 H 0 Z"
         transform="matrix(0.27777778,0,0,-0.27777778,-104.34667,2.8199444)"
         id="path50-9" /></clipPath><clipPath
       clipPathUnits="userSpaceOnUse"
       id="clipPath54-9"><path
         d="M 0,0 H 569 V 42 H 0 Z"
         transform="matrix(0.27777778,0,0,-0.27777778,-116.35067,2.8199444)"
         id="path54-8" /></clipPath><clipPath
       clipPathUnits="userSpaceOnUse"
       id="clipPath56-6"><path
         d="M 0,0 H 569 V 42 H 0 Z"
         transform="matrix(0.27777778,0,0,-0.27777778,-120.84567,1.3249444)"
         id="path56-5" /></clipPath><clipPath
       clipPathUnits="userSpaceOnUse"
       id="clipPath58-7"><path
         d="M 0,0 H 569 V 42 H 0 Z"
         transform="matrix(0.27777778,0,0,-0.27777778,-126.26867,2.8199444)"
         id="path58-6" /></clipPath><clipPath
       clipPathUnits="userSpaceOnUse"
       id="clipPath60-2"><path
         d="M 0,0 H 569 V 42 H 0 Z"
         transform="matrix(0.27777778,0,0,-0.27777778,-130.76367,1.3249444)"
         id="path60-7" /></clipPath><clipPath
       clipPathUnits="userSpaceOnUse"
       id="clipPath62"><path
         d="M 0,0 H 569 V 42 H 0 Z"
         transform="matrix(0.27777778,0,0,-0.27777778,-135.02167,2.8199444)"
         id="path62" /></clipPath><clipPath
       clipPathUnits="userSpaceOnUse"
       id="clipPath64"><path
         d="M 0,0 H 569 V 42 H 0 Z"
         transform="matrix(0.27777778,0,0,-0.27777778,-142.37567,1.3249444)"
         id="path64" /></clipPath><clipPath
       clipPathUnits="userSpaceOnUse"
       id="clipPath66"><path
         d="M 0,0 H 569 V 42 H 0 Z"
         transform="matrix(0.27777778,0,0,-0.27777778,-146.63467,2.8199444)"
         id="path66" /></clipPath><clipPath
       clipPathUnits="userSpaceOnUse"
       id="clipPath68"><path
         d="M 0,0 H 569 V 42 H 0 Z"
         transform="matrix(0.27777778,0,0,-0.27777778,-153.98867,1.3249444)"
         id="path68" /></clipPath><clipPath
       clipPathUnits="userSpaceOnUse"
       id="clipPath56-6-1"><path
         d="M 0,0 H 569 V 42 H 0 Z"
         transform="matrix(0.27777778,0,0,-0.27777778,-120.84567,1.3249444)"
         id="path56-5-4" /></clipPath><clipPath
       clipPathUnits="userSpaceOnUse"
       id="clipPath54-9-7"><path
         d="M 0,0 H 569 V 42 H 0 Z"
         transform="matrix(0.27777778,0,0,-0.27777778,-116.35067,2.8199444)"
         id="path54-8-1" /></clipPath><clipPath
       clipPathUnits="userSpaceOnUse"
       id="clipPath58-7-3"><path
         d="M 0,0 H 569 V 42 H 0 Z"
         transform="matrix(0.27777778,0,0,-0.27777778,-126.26867,2.8199444)"
         id="path58-6-2" /></clipPath><clipPath
       clipPathUnits="userSpaceOnUse"
       id="clipPath60-2-6"><path
         d="M 0,0 H 569 V 42 H 0 Z"
         transform="matrix(0.27777778,0,0,-0.27777778,-130.76367,1.3249444)"
         id="path60-7-9" /></clipPath><clipPath
       clipPathUnits="userSpaceOnUse"
       id="clipPath62-4"><path
         d="M 0,0 H 569 V 42 H 0 Z"
         transform="matrix(0.27777778,0,0,-0.27777778,-135.02167,2.8199444)"
         id="path62-9" /></clipPath><clipPath
       clipPathUnits="userSpaceOnUse"
       id="clipPath64-1"><path
         d="M 0,0 H 569 V 42 H 0 Z"
         transform="matrix(0.27777778,0,0,-0.27777778,-142.37567,1.3249444)"
         id="path64-7" /></clipPath><inkscape:path-effect
       effect="fillet_chamfer"
       id="path-effect61-7"
       is_visible="true"
       lpeversion="1"
       nodesatellites_param="F,0,0,1,0,0,0,1 @ F,0,0,1,0,5.0000035,0,1 @ F,0,0,1,0,4.9999999,0,1 @ F,0,0,1,0,0,0,1 @ F,0,0,1,0,0,0,1"
       radius="0"
       unit="px"
       method="auto"
       mode="F"
       chamfer_steps="1"
       flexible="false"
       use_knot_distance="true"
       apply_no_radius="true"
       apply_with_radius="true"
       only_selected="false"
       hide_knots="false" /><clipPath
       clipPathUnits="userSpaceOnUse"
       id="clipPath2-5"><path
         d="M 0,0 H 244 V 32 H 0 Z"
         transform="matrix(0.27777778,0,0,-0.27777778,0.3861111,1.7643889)"
         id="path2-8" /></clipPath><clipPath
       clipPathUnits="userSpaceOnUse"
       id="clipPath4-56"><path
         d="M 0,0 H 244 V 32 H 0 Z"
         transform="matrix(0.27777778,0,0,-0.27777778,-7.894889,0.26938889)"
         id="path4-7-0" /></clipPath><clipPath
       clipPathUnits="userSpaceOnUse"
       id="clipPath6-9-6"><path
         d="M 0,0 H 244 V 32 H 0 Z"
         transform="matrix(0.27777778,0,0,-0.27777778,-12.363889,1.7643889)"
         id="path6-4" /></clipPath><clipPath
       clipPathUnits="userSpaceOnUse"
       id="clipPath8-1"><path
         d="M 0,0 H 244 V 32 H 0 Z"
         transform="matrix(0.27777778,0,0,-0.27777778,-20.645889,0.26938889)"
         id="path8-6" /></clipPath><clipPath
       clipPathUnits="userSpaceOnUse"
       id="clipPath10-1"><path
         d="M 0,0 H 244 V 32 H 0 Z"
         transform="matrix(0.27777778,0,0,-0.27777778,-25.11489,1.7643889)"
         id="path10-2-4" /></clipPath><clipPath
       clipPathUnits="userSpaceOnUse"
       id="clipPath12-0"><path
         d="M 0,0 H 244 V 32 H 0 Z"
         transform="matrix(0.27777778,0,0,-0.27777778,-33.39689,0.26938889)"
         id="path12-4" /></clipPath><clipPath
       clipPathUnits="userSpaceOnUse"
       id="clipPath14-4"><path
         d="M 0,0 H 244 V 32 H 0 Z"
         transform="matrix(0.27777778,0,0,-0.27777778,-37.86589,1.7643889)"
         id="path14-59" /></clipPath><clipPath
       clipPathUnits="userSpaceOnUse"
       id="clipPath16-7"><path
         d="M 0,0 H 244 V 32 H 0 Z"
         transform="matrix(0.27777778,0,0,-0.27777778,-43.60589,0.26938889)"
         id="path16-5" /></clipPath><clipPath
       clipPathUnits="userSpaceOnUse"
       id="clipPath18-3"><path
         d="M 0,0 H 244 V 32 H 0 Z"
         transform="matrix(0.27777778,0,0,-0.27777778,-48.07489,1.7643889)"
         id="path18-9" /></clipPath><clipPath
       clipPathUnits="userSpaceOnUse"
       id="clipPath20-0"><path
         d="M 0,0 H 244 V 32 H 0 Z"
         transform="matrix(0.27777778,0,0,-0.27777778,-53.81489,0.26938889)"
         id="path20-5" /></clipPath><clipPath
       clipPathUnits="userSpaceOnUse"
       id="clipPath22-56"><path
         d="M 0,0 H 244 V 32 H 0 Z"
         transform="matrix(0.27777778,0,0,-0.27777778,-58.28489,1.7643889)"
         id="path22-3" /></clipPath><clipPath
       clipPathUnits="userSpaceOnUse"
       id="clipPath24-2"><path
         d="M 0,0 H 244 V 32 H 0 Z"
         transform="matrix(0.27777778,0,0,-0.27777778,-64.02489,0.26938889)"
         id="path24-6" /></clipPath><marker
       style="overflow:visible"
       id="ArrowWide-8-1-0-2"
       refX="0"
       refY="0"
       orient="auto-start-reverse"
       inkscape:stockid="Wide arrow"
       markerWidth="1"
       markerHeight="1"
       viewBox="0 0 1 1"
       inkscape:isstock="true"
       inkscape:collect="always"
       preserveAspectRatio="xMidYMid"><path
         style="fill:none;stroke:context-stroke;stroke-width:1;stroke-linecap:butt"
         d="M 3,-3 0,0 3,3"
         transform="rotate(180,0.125,0)"
         sodipodi:nodetypes="ccc"
         id="path1-5-0-6-5" /></marker><inkscape:path-effect
       effect="fillet_chamfer"
       id="path-effect61-3"
       is_visible="true"
       lpeversion="1"
       nodesatellites_param="F,0,0,1,0,0,0,1 @ F,0,0,1,0,5.0000035,0,1 @ F,0,0,1,0,4.9999999,0,1 @ F,0,0,1,0,0,0,1 @ F,0,0,1,0,0,0,1"
       radius="0"
       unit="px"
       method="auto"
       mode="F"
       chamfer_steps="1"
       flexible="false"
       use_knot_distance="true"
       apply_no_radius="true"
       apply_with_radius="true"
       only_selected="false"
       hide_knots="false" /><clipPath
       clipPathUnits="userSpaceOnUse"
       id="clipPath2-7-5"><path
         d="M 0,0 H 56 V 24 H 0 Z"
         transform="matrix(0.27777778,0,0,-0.27777778,0.22777777,2.0977223)"
         id="path2-80" /></clipPath><clipPath
       clipPathUnits="userSpaceOnUse"
       id="clipPath4-4"><path
         d="M 0,0 H 56 V 24 H 0 Z"
         transform="matrix(0.27777778,0,0,-0.27777778,-10.711157,2.0977223)"
         id="path4-5" /></clipPath><clipPath
       clipPathUnits="userSpaceOnUse"
       id="clipPath2-27"><path
         d="M 0,0 H 19 V 17 H 0 Z"
         transform="matrix(0.27777778,0,0,-0.27777778,0.23744444,0.15327785)"
         id="path2-1-4" /></clipPath><clipPath
       clipPathUnits="userSpaceOnUse"
       id="clipPath2-54"><path
         d="M 0,0 H 18 V 24 H 0 Z"
         transform="matrix(0.27777778,0,0,-0.27777778,0.01144444,2.0977223)"
         id="path2-5" /></clipPath><clipPath
       clipPathUnits="userSpaceOnUse"
       id="clipPath2-22"><path
         d="M 0,0 H 42 V 31 H 0 Z"
         transform="matrix(0.27777778,0,0,-0.27777778,0.335,1.7643888)"
         id="path2-7-6" /></clipPath><clipPath
       clipPathUnits="userSpaceOnUse"
       id="clipPath4-37"><path
         d="M 0,0 H 42 V 31 H 0 Z"
         transform="matrix(0.27777778,0,0,-0.27777778,-7.02,0.26938882)"
         id="path4-9" /></clipPath><clipPath
       clipPathUnits="userSpaceOnUse"
       id="clipPath2-3"><path
         d="M 0,0 H 17 V 25 H 0 Z"
         transform="matrix(0.27777778,0,0,-0.27777778,0.24922223,0.09772215)"
         id="path2-802" /></clipPath><clipPath
       clipPathUnits="userSpaceOnUse"
       id="clipPath58-7-3-0"><path
         d="M 0,0 H 569 V 42 H 0 Z"
         transform="matrix(0.27777778,0,0,-0.27777778,-126.26867,2.8199444)"
         id="path58-6-2-2" /></clipPath><clipPath
       clipPathUnits="userSpaceOnUse"
       id="clipPath60-2-6-4"><path
         d="M 0,0 H 569 V 42 H 0 Z"
         transform="matrix(0.27777778,0,0,-0.27777778,-130.76367,1.3249444)"
         id="path60-7-9-8" /></clipPath><clipPath
       clipPathUnits="userSpaceOnUse"
       id="clipPath2-26"><path
         d="M 0,0 H 98 V 22 H 0 Z"
         transform="matrix(0.27777778,0,0,-0.27777778,0.26377777,1.7088334)"
         id="path2-65" /></clipPath><clipPath
       clipPathUnits="userSpaceOnUse"
       id="clipPath4-41"><path
         d="M 0,0 H 98 V 22 H 0 Z"
         transform="matrix(0.27777778,0,0,-0.27777778,-4.2312223,0.2138334)"
         id="path4-71" /></clipPath><clipPath
       clipPathUnits="userSpaceOnUse"
       id="clipPath6-3"><path
         d="M 0,0 H 98 V 22 H 0 Z"
         transform="matrix(0.27777778,0,0,-0.27777778,-15.559222,1.7088334)"
         id="path6-48" /></clipPath><clipPath
       clipPathUnits="userSpaceOnUse"
       id="clipPath8-6-8"><path
         d="M 0,0 H 98 V 22 H 0 Z"
         transform="matrix(0.27777778,0,0,-0.27777778,-20.054222,0.2138334)"
         id="path8-15" /></clipPath><clipPath
       clipPathUnits="userSpaceOnUse"
       id="clipPath50-4"><path
         d="M 0,0 H 416 V 42 H 0 Z"
         transform="matrix(0.27777778,0,0,-0.27777778,-104.29789,2.8199444)"
         id="path50-7" /></clipPath><clipPath
       clipPathUnits="userSpaceOnUse"
       id="clipPath52-7"><path
         d="M 0,0 H 416 V 42 H 0 Z"
         transform="matrix(0.27777778,0,0,-0.27777778,-108.74489,1.3249444)"
         id="path52-3" /></clipPath><clipPath
       clipPathUnits="userSpaceOnUse"
       id="clipPath32-2-8"><path
         d="M 0,0 H 416 V 42 H 0 Z"
         transform="matrix(0.27777778,0,0,-0.27777778,-71.83789,2.8199444)"
         id="path32-9-9" /></clipPath><clipPath
       clipPathUnits="userSpaceOnUse"
       id="clipPath34-8-7"><path
         d="M 0,0 H 416 V 42 H 0 Z"
         transform="matrix(0.27777778,0,0,-0.27777778,-76.64289,6.9329444)"
         id="path34-2-4" /></clipPath><clipPath
       clipPathUnits="userSpaceOnUse"
       id="clipPath36-0-5"><path
         d="M 0,0 H 416 V 42 H 0 Z"
         transform="matrix(0.27777778,0,0,-0.27777778,-76.28489,0.35694437)"
         id="path36-7-9" /></clipPath><clipPath
       clipPathUnits="userSpaceOnUse"
       id="clipPath54-9-7-2"><path
         d="M 0,0 H 569 V 42 H 0 Z"
         transform="matrix(0.27777778,0,0,-0.27777778,-116.35067,2.8199444)"
         id="path54-8-1-6" /></clipPath><clipPath
       clipPathUnits="userSpaceOnUse"
       id="clipPath56-6-1-9"><path
         d="M 0,0 H 569 V 42 H 0 Z"
         transform="matrix(0.27777778,0,0,-0.27777778,-120.84567,1.3249444)"
         id="path56-5-4-5" /></clipPath><inkscape:path-effect
       effect="fillet_chamfer"
       id="path-effect61-2-3"
       is_visible="true"
       lpeversion="1"
       nodesatellites_param="F,0,0,1,0,0,0,1 @ F,0,0,1,0,5.0000035,0,1 @ F,0,0,1,0,4.9999999,0,1 @ F,0,0,1,0,0,0,1 @ F,0,0,1,0,0,0,1"
       radius="0"
       unit="px"
       method="auto"
       mode="F"
       chamfer_steps="1"
       flexible="false"
       use_knot_distance="true"
       apply_no_radius="true"
       apply_with_radius="true"
       only_selected="false"
       hide_knots="false" /><inkscape:path-effect
       effect="fillet_chamfer"
       id="path-effect61-2-2"
       is_visible="true"
       lpeversion="1"
       nodesatellites_param="F,0,0,1,0,0,0,1 @ F,0,0,1,0,5.0000035,0,1 @ F,0,0,1,0,4.9999999,0,1 @ F,0,0,1,0,0,0,1 @ F,0,0,1,0,0,0,1"
       radius="0"
       unit="px"
       method="auto"
       mode="F"
       chamfer_steps="1"
       flexible="false"
       use_knot_distance="true"
       apply_no_radius="true"
       apply_with_radius="true"
       only_selected="false"
       hide_knots="false" /><clipPath
       clipPathUnits="userSpaceOnUse"
       id="clipPath28-5"><path
         d="M 0,0 H 416 V 42 H 0 Z"
         transform="matrix(0.27777778,0,0,-0.27777778,-66.42389,6.9329444)"
         id="path28-8" /></clipPath><clipPath
       clipPathUnits="userSpaceOnUse"
       id="clipPath62-4-4"><path
         d="M 0,0 H 569 V 42 H 0 Z"
         transform="matrix(0.27777778,0,0,-0.27777778,-135.02167,2.8199444)"
         id="path62-9-4" /></clipPath><clipPath
       clipPathUnits="userSpaceOnUse"
       id="clipPath64-1-5"><path
         d="M 0,0 H 569 V 42 H 0 Z"
         transform="matrix(0.27777778,0,0,-0.27777778,-142.37567,1.3249444)"
         id="path64-7-0" /></clipPath><clipPath
       clipPathUnits="userSpaceOnUse"
       id="clipPath34-8-8"><path
         d="M 0,0 H 416 V 42 H 0 Z"
         transform="matrix(0.27777778,0,0,-0.27777778,-76.64289,6.9329444)"
         id="path34-2-47" /></clipPath><clipPath
       clipPathUnits="userSpaceOnUse"
       id="clipPath2-277"><path
         d="M 0,0 H 47 V 22 H 0 Z"
         transform="matrix(0.27777778,0,0,-0.27777778,0.25677777,1.7088334)"
         id="path2-57" /></clipPath><clipPath
       clipPathUnits="userSpaceOnUse"
       id="clipPath4-1"><path
         d="M 0,0 H 47 V 22 H 0 Z"
         transform="matrix(0.27777778,0,0,-0.27777778,-4.2382223,0.2138334)"
         id="path4-27" /></clipPath><clipPath
       clipPathUnits="userSpaceOnUse"
       id="clipPath1"><path
         d="M 0,0 H 47 V 22 H 0 Z"
         transform="matrix(0.27777778,0,0,-0.27777778,0.25677777,1.7088334)"
         id="path1-1" /></clipPath><clipPath
       clipPathUnits="userSpaceOnUse"
       id="clipPath2-8"><path
         d="M 0,0 H 47 V 22 H 0 Z"
         transform="matrix(0.27777778,0,0,-0.27777778,-4.2382223,0.2138334)"
         id="path2-9" /></clipPath><clipPath
       clipPathUnits="userSpaceOnUse"
       id="clipPath3"><path
         d="M 0,0 H 47 V 22 H 0 Z"
         transform="matrix(0.27777778,0,0,-0.27777778,0.25677777,1.7088334)"
         id="path3-38" /></clipPath><clipPath
       clipPathUnits="userSpaceOnUse"
       id="clipPath4-7"><path
         d="M 0,0 H 47 V 22 H 0 Z"
         transform="matrix(0.27777778,0,0,-0.27777778,-4.2382223,0.2138334)"
         id="path4-2" /></clipPath><clipPath
       clipPathUnits="userSpaceOnUse"
       id="clipPath2-36"><path
         d="M 0,0 H 22 V 2 H 0 Z"
         transform="matrix(0.27777778,0,0,-0.27777778,0.82,-2.2253334)"
         id="path2-59" /></clipPath><marker
       style="overflow:visible"
       id="ArrowWide-8-1-8"
       refX="0"
       refY="0"
       orient="auto-start-reverse"
       inkscape:stockid="Wide arrow"
       markerWidth="0.60000002"
       markerHeight="0.60000002"
       viewBox="0 0 1 1"
       inkscape:isstock="true"
       inkscape:collect="always"
       preserveAspectRatio="xMidYMid"><path
         style="fill:none;stroke:context-stroke;stroke-width:1;stroke-linecap:butt"
         d="M 3,-3 0,0 3,3"
         transform="rotate(180,0.125,0)"
         sodipodi:nodetypes="ccc"
         id="path1-5-0-0" /></marker><inkscape:path-effect
       effect="fillet_chamfer"
       id="path-effect41-4"
       is_visible="true"
       lpeversion="1"
       nodesatellites_param="F,0,0,1,0,5.190373,0,1 @ F,0,0,1,0,6.3479265,0,1 @ F,0,0,1,0,7.6462366,0,1 @ F,0,0,1,0,3.9998596,0,1 @ F,0,0,1,0,3.9469852,0,1"
       radius="0"
       unit="px"
       method="auto"
       mode="F"
       chamfer_steps="1"
       flexible="false"
       use_knot_distance="true"
       apply_no_radius="true"
       apply_with_radius="true"
       only_selected="false"
       hide_knots="false" /><clipPath
       clipPathUnits="userSpaceOnUse"
       id="clipPath38-5"><path
         d="M 0,0 H 416 V 42 H 0 Z"
         transform="matrix(0.27777778,0,0,-0.27777778,-82.05689,2.8199444)"
         id="path38-9" /></clipPath><clipPath
       clipPathUnits="userSpaceOnUse"
       id="clipPath40-4"><path
         d="M 0,0 H 416 V 42 H 0 Z"
         transform="matrix(0.27777778,0,0,-0.27777778,-86.86189,6.9329444)"
         id="path40-3-3" /></clipPath><clipPath
       clipPathUnits="userSpaceOnUse"
       id="clipPath42-9"><path
         d="M 0,0 H 416 V 42 H 0 Z"
         transform="matrix(0.27777778,0,0,-0.27777778,-86.50389,0.35694437)"
         id="path42-0" /></clipPath><marker
       style="overflow:visible"
       id="Stop-4"
       refX="0"
       refY="0"
       orient="auto"
       inkscape:stockid="Stop"
       markerWidth="1"
       markerHeight="1"
       viewBox="0 0 1 1"
       inkscape:isstock="true"
       inkscape:collect="always"
       preserveAspectRatio="xMidYMid"><path
         style="fill:none;stroke:context-stroke;stroke-width:1"
         d="M 0,4 V -4"
         id="path107-2" /></marker><marker
       style="overflow:visible"
       id="Stop-7-6"
       refX="0"
       refY="0"
       orient="auto"
       inkscape:stockid="Stop"
       markerWidth="1"
       markerHeight="1"
       viewBox="0 0 1 1"
       inkscape:isstock="true"
       inkscape:collect="always"
       preserveAspectRatio="xMidYMid"><path
         style="fill:none;stroke:context-stroke;stroke-width:1"
         d="M 0,4 V -4"
         id="path107-0-0" /></marker><marker
       style="overflow:visible"
       id="Stop-4-6"
       refX="0"
       refY="0"
       orient="auto"
       inkscape:stockid="Stop"
       markerWidth="1"
       markerHeight="1"
       viewBox="0 0 1 1"
       inkscape:isstock="true"
       inkscape:collect="always"
       preserveAspectRatio="xMidYMid"><path
         style="fill:none;stroke:context-stroke;stroke-width:1"
         d="M 0,4 V -4"
         id="path107-2-8" /></marker><marker
       style="overflow:visible"
       id="Stop-7-6-0"
       refX="0"
       refY="0"
       orient="auto"
       inkscape:stockid="Stop"
       markerWidth="1"
       markerHeight="1"
       viewBox="0 0 1 1"
       inkscape:isstock="true"
       inkscape:collect="always"
       preserveAspectRatio="xMidYMid"><path
         style="fill:none;stroke:context-stroke;stroke-width:1"
         d="M 0,4 V -4"
         id="path107-0-0-7" /></marker><marker
       style="overflow:visible"
       id="Stop-4-6-4"
       refX="0"
       refY="0"
       orient="auto"
       inkscape:stockid="Stop"
       markerWidth="1"
       markerHeight="1"
       viewBox="0 0 1 1"
       inkscape:isstock="true"
       inkscape:collect="always"
       preserveAspectRatio="xMidYMid"><path
         style="fill:none;stroke:context-stroke;stroke-width:1"
         d="M 0,4 V -4"
         id="path107-2-8-8" /></marker><marker
       style="overflow:visible"
       id="Stop-7-6-0-5"
       refX="0"
       refY="0"
       orient="auto"
       inkscape:stockid="Stop"
       markerWidth="1"
       markerHeight="1"
       viewBox="0 0 1 1"
       inkscape:isstock="true"
       inkscape:collect="always"
       preserveAspectRatio="xMidYMid"><path
         style="fill:none;stroke:context-stroke;stroke-width:1"
         d="M 0,4 V -4"
         id="path107-0-0-7-5" /></marker><clipPath
       clipPathUnits="userSpaceOnUse"
       id="clipPath26-0"><path
         d="M 0,0 H 416 V 42 H 0 Z"
         transform="matrix(0.27777778,0,0,-0.27777778,-61.61889,2.8199444)"
         id="path26-1" /></clipPath><clipPath
       clipPathUnits="userSpaceOnUse"
       id="clipPath30-6"><path
         d="M 0,0 H 416 V 42 H 0 Z"
         transform="matrix(0.27777778,0,0,-0.27777778,-66.06589,0.35694437)"
         id="path30-4" /></clipPath><clipPath
       clipPathUnits="userSpaceOnUse"
       id="clipPath50-48"><path
         d="M 0,0 H 416 V 42 H 0 Z"
         transform="matrix(0.27777778,0,0,-0.27777778,-104.29789,2.8199444)"
         id="path50-6" /></clipPath><clipPath
       clipPathUnits="userSpaceOnUse"
       id="clipPath52-14"><path
         d="M 0,0 H 416 V 42 H 0 Z"
         transform="matrix(0.27777778,0,0,-0.27777778,-108.74489,1.3249444)"
         id="path52-0" /></clipPath><clipPath
       clipPathUnits="userSpaceOnUse"
       id="clipPath14-8"><path
         d="M 0,0 H 416 V 42 H 0 Z"
         transform="matrix(0.27777778,0,0,-0.27777778,-30.96889,2.8199444)"
         id="path14-4-1" /></clipPath><clipPath
       clipPathUnits="userSpaceOnUse"
       id="clipPath18-0"><path
         d="M 0,0 H 416 V 42 H 0 Z"
         transform="matrix(0.27777778,0,0,-0.27777778,-35.41589,0.35694437)"
         id="path18-3" /></clipPath><clipPath
       clipPathUnits="userSpaceOnUse"
       id="clipPath2-36-1"><path
         d="M 0,0 H 22 V 2 H 0 Z"
         transform="matrix(0.27777778,0,0,-0.27777778,0.82,-2.2253334)"
         id="path2-59-1" /></clipPath><clipPath
       clipPathUnits="userSpaceOnUse"
       id="clipPath2-7-50"><path
         d="M 0,0 H 416 V 42 H 0 Z"
         transform="matrix(0.27777778,0,0,-0.27777778,0.19411111,2.8199444)"
         id="path2-1-8" /></clipPath><clipPath
       clipPathUnits="userSpaceOnUse"
       id="clipPath6-8-4"><path
         d="M 0,0 H 416 V 42 H 0 Z"
         transform="matrix(0.27777778,0,0,-0.27777778,-4.252889,0.35694437)"
         id="path6-04-9" /></clipPath><clipPath
       clipPathUnits="userSpaceOnUse"
       id="clipPath38-0"><path
         d="M 0,0 H 416 V 42 H 0 Z"
         transform="matrix(0.27777778,0,0,-0.27777778,-82.05689,2.8199444)"
         id="path38-8" /></clipPath><clipPath
       clipPathUnits="userSpaceOnUse"
       id="clipPath42-2"><path
         d="M 0,0 H 416 V 42 H 0 Z"
         transform="matrix(0.27777778,0,0,-0.27777778,-86.50389,0.35694437)"
         id="path42-06" /></clipPath><clipPath
       clipPathUnits="userSpaceOnUse"
       id="clipPath14-0"><path
         d="M 0,0 H 416 V 42 H 0 Z"
         transform="matrix(0.27777778,0,0,-0.27777778,-30.96889,2.8199444)"
         id="path14-4-0" /></clipPath><clipPath
       clipPathUnits="userSpaceOnUse"
       id="clipPath18-9"><path
         d="M 0,0 H 416 V 42 H 0 Z"
         transform="matrix(0.27777778,0,0,-0.27777778,-35.41589,0.35694437)"
         id="path18-37" /></clipPath><clipPath
       clipPathUnits="userSpaceOnUse"
       id="clipPath2-36-5"><path
         d="M 0,0 H 22 V 2 H 0 Z"
         transform="matrix(0.27777778,0,0,-0.27777778,0.82,-2.2253334)"
         id="path2-59-7" /></clipPath><clipPath
       clipPathUnits="userSpaceOnUse"
       id="clipPath2-7-2"><path
         d="M 0,0 H 416 V 42 H 0 Z"
         transform="matrix(0.27777778,0,0,-0.27777778,0.19411111,2.8199444)"
         id="path2-1-9" /></clipPath><clipPath
       clipPathUnits="userSpaceOnUse"
       id="clipPath6-8-7"><path
         d="M 0,0 H 416 V 42 H 0 Z"
         transform="matrix(0.27777778,0,0,-0.27777778,-4.252889,0.35694437)"
         id="path6-04-5" /></clipPath></defs><g
     inkscape:groupmode="layer"
     id="layer5"
     inkscape:label="Background 1"
     style="display:inline"
     transform="translate(-398,-102.77903)"><path
       style="display:inline;opacity:0.108;fill:#6d8ef7;fill-opacity:0.776471;stroke:none;stroke-width:4"
       d="m 400,160 v 260 l 10e-6,32 332,266 C 1457,716.00002 1457.5483,718 1820,718 V 160 Z"
       id="Background__Whole_"
       sodipodi:nodetypes="ccccccc" /><path
       style="display:inline;opacity:0.2;fill:#6d8ef7;fill-opacity:0.776471;stroke:none;stroke-width:4"
       d="M 700.00002,160 700,420 H 400 l 10e-6,32 332,266 C 1179,717.00002 1457.5483,718 1820,718 V 420 H 1610 V 160 Z"
       id="Background__Middle_"
       sodipodi:nodetypes="cccccccccc"
       transform="translate(1.6666667e-6)" /></g><g
     inkscape:groupmode="layer"
     id="layer3"
     inkscape:label="Boundaries"
     transform="translate(-412,-107.77903)"
     style="display:inline"><path
       style="fill:none;fill-opacity:1;stroke:#000000;stroke-width:4;stroke-dasharray:none;stroke-opacity:1;paint-order:fill markers stroke"
       d="M 414,425 H 714 V 165 H 414 Z"
       id="sd_box"
       sodipodi:nodetypes="ccccc" /><path
       style="fill:none;fill-opacity:1;stroke:#000000;stroke-width:4;stroke-dasharray:none;stroke-opacity:1;paint-order:fill markers stroke"
       d="m 1624,425 h 210 V 165 h -210 z"
       id="n_box"
       sodipodi:nodetypes="ccccc" /><path
       style="fill:none;fill-opacity:1;stroke:#000000;stroke-width:4;stroke-dasharray:none;stroke-opacity:1;paint-order:fill markers stroke"
       d="m 714,425 260,182.77903 h 650 V 165 H 714 Z"
       id="t_box"
       sodipodi:nodetypes="cccccc" /><path
       style="fill:none;stroke:#000000;stroke-width:4;stroke-dasharray:none;stroke-dashoffset:0"
       d="m 414,165 v 260 l 10e-6,32 L 746,723 H 1834 V 165 Z"
       id="t_and_d_box"
       sodipodi:nodetypes="ccccccc" /></g><g
     inkscape:groupmode="layer"
     id="layer4"
     inkscape:label="Implied Circulation"
     style="display:inline"
     transform="translate(-412,-107.77903)" /><g
     inkscape:label="Fluxes"
     inkscape:groupmode="layer"
     id="layer1"
     style="display:inline"
     transform="translate(-412,-107.77903)"><g
       id="H1_label"
       transform="matrix(1.769255,0,0,1.769255,284.63766,582.65232)"><path
         id="path1-4"
         d="m 7.6045356,-6.0380742 c 0.087891,-0.3580729 0.1074219,-0.4589844 0.8365885,-0.4589844 0.2571615,0 0.3385417,0 0.3385417,-0.1985677 0,-0.1106771 -0.1106771,-0.1106771 -0.139974,-0.1106771 -0.2799479,0 -0.9960937,0.032552 -1.2760416,0.032552 -0.2897136,0 -0.9960938,-0.032552 -1.2858073,-0.032552 -0.078125,0 -0.1888021,0 -0.1888021,0.2018229 0,0.1074219 0.091146,0.1074219 0.2799479,0.1074219 0.019531,0 0.2083333,0 0.3776042,0.019531 0.1790364,0.019531 0.2701823,0.032552 0.2701823,0.1595052 0,0.042318 -0.00977,0.061849 -0.042318,0.188802 l -0.5957029,2.431641 H 3.1383898 l 0.5891927,-2.3404948 c 0.087891,-0.3580729 0.1204427,-0.4589844 0.8365885,-0.4589844 0.2604167,0 0.3385417,0 0.3385417,-0.1985677 0,-0.1106771 -0.1106771,-0.1106771 -0.139974,-0.1106771 -0.2799479,0 -0.9960937,0.032552 -1.2760417,0.032552 -0.2864583,0 -0.9960937,-0.032552 -1.2858072,-0.032552 -0.078125,0 -0.1888021,0 -0.1888021,0.2018229 0,0.1074219 0.091146,0.1074219 0.2799479,0.1074219 0.019531,0 0.2083333,0 0.3776042,0.019531 0.1790364,0.019531 0.2701822,0.032552 0.2701822,0.1595052 0,0.042318 -0.00977,0.071614 -0.039063,0.188802 l -1.3346354,5.35156255 c -0.1009114,0.390625 -0.1204427,0.46875 -0.90820309,0.46875 -0.17903646,0 -0.27018229,0 -0.27018229,0.19856771 0,0.11067707958 0.1204427,0.11067707958 0.13997395,0.11067707958 0.27994792,0 0.98632813,-0.0292968796 1.26627603,-0.0292968796 0.2083333,0 0.4296875,0.0097656 0.6380208,0.0097656 0.218099,0 0.4394532,0.0195312496 0.6477865,0.0195312496 0.078125,0 0.1985677,0 0.1985677,-0.19856770958 0,-0.11067708 -0.087891,-0.11067708 -0.2799479,-0.11067708 -0.3678385,0 -0.6477865,0 -0.6477865,-0.17903646 0,-0.0585938 0.022787,-0.11067708 0.032552,-0.16927083 l 0.677084,-2.73111943 h 3.0371093 c -0.4166666,1.6536458 -0.6477864,2.60091142 -0.6868489,2.75065101 -0.097656,0.31901041 -0.2897136,0.32877604 -0.9049479,0.32877604 -0.1497396,0 -0.2408855,0 -0.2408855,0.19856771 0,0.11067707958 0.1204427,0.11067707958 0.139974,0.11067707958 0.2799479,0 0.9863281,-0.0292968796 1.266276,-0.0292968796 0.2083334,0 0.4264323,0.0097656 0.6380209,0.0097656 0.2180989,0 0.4361979,0.0195312496 0.6477864,0.0195312496 0.078125,0 0.1985677,0 0.1985677,-0.19856770958 0,-0.11067708 -0.091146,-0.11067708 -0.2799479,-0.11067708 -0.3678385,0 -0.6477864,0 -0.6477864,-0.17903646 0,-0.0585938 0.019531,-0.11067708 0.029297,-0.16927083 z m 0,0"
         style="fill:#000000;fill-opacity:1;fill-rule:nonzero;stroke:none"
         aria-label="&lt;latexit sha1_base64=&quot;N0pBt/unpXWGIY/L0zI5ilu0aIc=&quot;&gt;AAACAHicbZDLSsNAFIZPvNZ4i7pw4SZYBFclaaW6LLrpsoK9QBvCZDpphk4mYWYilNCNr+LGhSJufQx3vo3TNgtt/eHAx3/OYeb8QcqoVI7zbaytb2xubZd2zN29/YND6+i4I5NMYNLGCUtEL0CSMMpJW1HFSC8VBMUBI91gfDfrdx+JkDThD2qSEi9GI05DipHSlm+dNn3XbPpVXTUz0hxpjvyab5WdijOXvQpuAWUo1PKtr8EwwVlMuMIMSdl3nVR5ORKKYkam5iCTJEV4jEakr5GjmEgvnx8wtS+0M7TDROjiyp67vzdyFEs5iQM9GSMVyeXezPyv189UeOPllKeZIhwvHgozZqvEnqVhD6kgWLGJBoQF1X+1cYQEwkpnZuoQ3OWTV6FTrbj1Sv3+qty4LeIowRmcwyW4cA0NaEIL2oBhCs/wCm/Gk/FivBsfi9E1o9g5gT8yPn8Aqh6TRA==&lt;/latexit&gt;H"
         transform="matrix(3.9626747,0,0,3.9626747,458.89761,-94.33167)"
         clip-path="url(#clipPath2-5)" /></g><path
       style="display:inline;fill:none;fill-opacity:1;stroke:#000000;stroke-width:6.36338;stroke-dasharray:none;stroke-dashoffset:0;stroke-opacity:1;marker-start:url(#ArrowWide-8-1-0-2);marker-end:url(#ArrowWide-8-1-0-2);paint-order:fill markers stroke"
       d="M 1084,175 V 597.77903"
       id="H1_arrow"
       sodipodi:nodetypes="cc" /><text
       xml:space="preserve"
       style="font-size:14.0027px;display:inline;opacity:1;fill:none;fill-opacity:1;stroke:#000000;stroke-width:1.45538;stroke-dasharray:none;stroke-opacity:1;paint-order:fill markers stroke"
       x="25.822472"
       y="57.213058"
       id="text15"><tspan
         sodipodi:role="line"
         id="tspan15"
         style="stroke-width:1.45539"
         x="25.822472"
         y="57.213058" /></text><path
       style="fill:none;fill-opacity:1;stroke:#ca3a7e;stroke-width:8;stroke-dasharray:none;stroke-opacity:1;marker-end:url(#Triangle);paint-order:fill markers stroke"
       d="M 1342.4388,667.39633 V 560.16196"
       id="qU1_arrow"
       sodipodi:nodetypes="cc" /><path
       style="fill:none;fill-opacity:1;stroke:#ca3a7e;stroke-width:8;stroke-dasharray:none;stroke-opacity:1;marker-end:url(#Triangle);paint-order:fill markers stroke"
       d="M 520,357.79571 V 465.03008"
       id="qEk_arrow"
       sodipodi:nodetypes="cc" /><path
       style="fill:none;fill-opacity:1;stroke:#ca3a7e;stroke-width:8;stroke-dasharray:none;stroke-opacity:1;marker-end:url(#Triangle);paint-order:fill markers stroke"
       d="M 772.20429,238.00001 H 664.96987"
       id="qS1_arrow"
       sodipodi:nodetypes="cc" /><path
       style="display:inline;opacity:0.8;fill:none;fill-opacity:1;stroke:#745fe8;stroke-width:0.730001;stroke-dasharray:0.730001, 0.730001;stroke-dashoffset:0;stroke-opacity:1;marker-mid:url(#ArrowWide-8-1-8);marker-end:url(#ArrowWide-8-1-8);paint-order:fill markers stroke"
       d="m 74.869348,30.552926 v 6.179899 a 11.030474,11.030474 60.080008 0 0 5.48858,9.537231 l 22.529232,13.091286 a 28.377578,28.377578 15.080008 0 0 14.25737,3.841597 h 11.66732 a 3.9998596,3.9998596 135 0 0 3.99986,-3.99986 V 29.309538 a 3.9469852,3.9469852 45 0 0 -3.94699,-3.946985 H 80.059721 a 5.190373,5.190373 135 0 0 -5.190373,5.190373 z"
       id="AABW-3"
       inkscape:path-effect="#path-effect41-4"
       inkscape:original-d="m 74.869348,25.362553 v 17.718199 l 34.628942,20.122187 h 23.31342 V 25.362553 Z"
       transform="matrix(10.723438,0,0,10.723438,-140.85681,10.026231)"
       sodipodi:nodetypes="cccccc" /><text
       xml:space="preserve"
       style="font-size:52.9167px;display:inline;fill:#000000;fill-opacity:1;stroke:none;stroke-width:3.5387;stroke-dasharray:none;stroke-opacity:1;paint-order:fill markers stroke"
       x="1660.0842"
       y="151.51024"
       id="north_text"><tspan
         sodipodi:role="line"
         id="tspan16-1-5"
         style="font-size:52.9167px;fill:#000000;fill-opacity:1;stroke:none;stroke-width:3.53873"
         x="1660.0842"
         y="151.51024">north</tspan></text><text
       xml:space="preserve"
       style="font-size:52.9167px;line-height:0;display:inline;fill:#000000;fill-opacity:1;stroke:none;stroke-width:3.5387;stroke-dasharray:none;stroke-opacity:1;paint-order:fill markers stroke"
       x="940.43225"
       y="147.98332"
       id="low_mid_text"><tspan
         sodipodi:role="line"
         id="tspan16-1-5-7-2"
         style="font-style:normal;font-variant:normal;font-weight:normal;font-stretch:normal;font-size:52.9167px;line-height:0;font-family:sans-serif;-inkscape-font-specification:sans-serif;fill:#000000;fill-opacity:1;stroke:none;stroke-width:3.53873"
         x="940.43225"
         y="147.98332">low/mid-latitudes</tspan></text><path
       style="display:inline;fill:none;stroke:#000000;stroke-width:3.66217;stroke-dasharray:none;stroke-dashoffset:0;marker-start:url(#Stop-4)"
       d="M 734.00004,131.80858 H 934"
       id="low_mid_lhs_bar"
       sodipodi:nodetypes="cc" /><path
       style="display:inline;fill:none;stroke:#000000;stroke-width:3.62707;stroke-dasharray:none;stroke-dashoffset:0;marker-start:url(#Stop-7-6)"
       d="m 1614,131.80858 -200,-0.13882"
       id="low_mid_rhs_bar"
       sodipodi:nodetypes="cc" /><path
       style="display:inline;fill:none;stroke:#000000;stroke-width:3.66217;stroke-dasharray:none;stroke-dashoffset:0;marker-start:url(#Stop-4-6)"
       d="m 1632,131.80858 h 20"
       id="north_lhs_bar"
       sodipodi:nodetypes="cc" /><path
       style="display:inline;fill:none;stroke:#000000;stroke-width:3.62707;stroke-dasharray:none;stroke-dashoffset:0;marker-start:url(#Stop-7-6-0)"
       d="m 1832,131.80858 h -20"
       id="north_rhs_bar"
       sodipodi:nodetypes="cc" /><text
       xml:space="preserve"
       style="font-size:52.9167px;display:inline;fill:#000000;fill-opacity:1;stroke:none;stroke-width:3.5387;stroke-dasharray:none;stroke-opacity:1;paint-order:fill markers stroke"
       x="491.11035"
       y="151.51024"
       id="north_text-4"><tspan
         sodipodi:role="line"
         id="tspan16-1-5-2"
         style="font-size:52.9167px;fill:#000000;fill-opacity:1;stroke:none;stroke-width:3.53873"
         x="491.11035"
         y="151.51024">south</tspan></text><path
       style="display:inline;fill:none;stroke:#000000;stroke-width:3.66217;stroke-dasharray:none;stroke-dashoffset:0;marker-start:url(#Stop-4-6-4)"
       d="m 414.00004,131.80858 h 70"
       id="north_lhs_bar-1"
       sodipodi:nodetypes="cc" /><path
       style="display:inline;fill:none;stroke:#000000;stroke-width:3.62707;stroke-dasharray:none;stroke-dashoffset:0;marker-start:url(#Stop-7-6-0-5)"
       d="m 709.00004,131.80858 h -70"
       id="north_rhs_bar-9"
       sodipodi:nodetypes="cc" /><g
       id="qS1_text"
       transform="matrix(1.1865058,0,0,1.1865058,-134.98814,-158.653)"
       style="display:inline"><path
         id="path25"
         d="m 4.5049718,-4.2934996 c 0,-0.042318 -0.032552,-0.1009114 -0.1009115,-0.1009114 -0.1106771,0 -0.5078125,0.4003906 -0.6770833,0.6868489 -0.2213542,-0.5371093 -0.608724,-0.6966145 -0.9277344,-0.6966145 -1.1751302,0 -2.40234373,1.4746093 -2.40234373,2.9199218 0,0.97656253 0.58919271,1.59505211 1.31510413,1.59505211 0.4296875,0 0.8170573,-0.24088542 1.1783855,-0.59895833 -0.091146,0.34830729 -0.4199219,1.69270832 -0.4492188,1.78385412 -0.08138,0.279948 -0.1595052,0.3190105 -0.7161458,0.3287761 -0.1302084,0 -0.2311198,0 -0.2311198,0.1985677 0,0.00977 0,0.1106771 0.1302083,0.1106771 0.3190104,0 0.6673177,-0.029297 0.9960938,-0.029297 0.3385416,0 0.6966145,0.029297 1.0253906,0.029297 0.052083,0 0.1790364,0 0.1790364,-0.1985677 0,-0.1106771 -0.097656,-0.1106771 -0.2571614,-0.1106771 -0.4785156,0 -0.4785156,-0.068359 -0.4785156,-0.1595052 0,-0.068359 0.019531,-0.1302084 0.039063,-0.218099 z m -2.7604167,4.18294274 c -0.5989583,0 -0.6380208,-0.76497396 -0.6380208,-0.93424474 0,-0.4785157 0.2897135,-1.5657553 0.4589844,-1.9856771 0.3059895,-0.7356771 0.8268229,-1.155599 1.2337239,-1.155599 0.6477865,0 0.7877604,0.8072917 0.7877604,0.8789063 0,0.058594 -0.546875,2.2395833 -0.579427,2.281901 -0.1464844,0.27669271 -0.7063803,0.91471354 -1.2630209,0.91471354 z m 0,0"
         style="fill:#000000;fill-opacity:1;fill-rule:nonzero;stroke:none"
         aria-label="q"
         transform="matrix(4.9499017,0,0,4.9499017,770.26286,339.71709)"
         clip-path="url(#clipPath26-0)" /><path
         id="path29"
         d="m 4.9513637,-4.8115126 c 0,-0.035807 -0.022786,-0.091146 -0.091146,-0.091146 -0.042318,0 -0.048828,0.00651 -0.139974,0.097656 L 4.378447,-4.4078668 C 4.1147752,-4.7757053 3.675322,-4.9026584 3.2488898,-4.9026584 c -0.983073,0 -1.8554688,0.7942708 -1.8554688,1.5983073 0,0.1041666 0.022787,0.3841146 0.2311198,0.641276 0.2376302,0.2766927 0.4947917,0.3417969 0.9700521,0.452474 0.1399739,0.035807 0.4882812,0.1106771 0.5924479,0.1399739 0.2213542,0.055339 0.6477865,0.2083334 0.6477865,0.7324219 0,0.56315105 -0.592448,1.22721355 -1.3867188,1.22721355 -0.6152344,0 -1.3541667,-0.21809896 -1.3541667,-0.98958335 0,-0.071615 0.016276,-0.2246094 0.042318,-0.3515625 0.00651,-0.026042 0.00651,-0.032552 0.00651,-0.039063 0,-0.091146 -0.08138,-0.091146 -0.1106771,-0.091146 -0.0976563,0 -0.10416668,0.013021 -0.13346356,0.1399739 l -0.35481771,1.3932292 c -0.00651,0.02929688 -0.0195313,0.06835938 -0.0195313,0.10416667 0,0.04231771 0.0260417,0.08463542 0.0976563,0.08463542 0.0390625,0 0.0488281,-0.00651 0.13671875,-0.09765625 0.078125,-0.08463542 0.26041662,-0.30598959 0.33528642,-0.390625 0.3710938,0.40364583 0.9147136,0.48828125 1.3313802,0.48828125 1.0546875,0 1.9042969,-0.90820313 1.9042969,-1.72851559 0,-0.3092448 -0.1236979,-0.5859375 -0.2766927,-0.748698 -0.2441406,-0.250651 -0.3515625,-0.2766927 -1.25,-0.4882812 -0.1464842,-0.032551 -0.377604,-0.08789 -0.4394529,-0.1106764 -0.1725261,-0.061849 -0.4654948,-0.2376302 -0.4654948,-0.6347656 0,-0.5501302 0.6184896,-1.1067708 1.344401,-1.1067708 0.7519532,0 1.1165365,0.423177 1.1165365,1.0872395 0,0.091146 -0.029297,0.2506511 -0.029297,0.3125 0,0.097656 0.084635,0.097656 0.1204427,0.097656 0.1041667,0 0.1106771,-0.032552 0.1367188,-0.1529948 z m 0,0"
         style="fill:#000000;fill-opacity:1;fill-rule:nonzero;stroke:none"
         aria-label="S"
         transform="matrix(4.9499017,0,0,4.9499017,792.27508,351.90871)"
         clip-path="url(#clipPath30-6)" /></g><g
       id="qU1_text"
       transform="matrix(12.700344,0,0,12.700344,-84.680482,233.51738)"
       style="display:inline"><path
         id="path37"
         d="m 4.5056111,-4.2934996 c 0,-0.042318 -0.032552,-0.1009114 -0.1009114,-0.1009114 -0.1106771,0 -0.5078125,0.4003906 -0.6770834,0.6868489 -0.2213541,-0.5371093 -0.6087239,-0.6966145 -0.9277344,-0.6966145 -1.1751302,0 -2.40234371,1.4746093 -2.40234371,2.9199218 0,0.97656253 0.58919271,1.59505211 1.31510421,1.59505211 0.4296875,0 0.8170573,-0.24088542 1.1783854,-0.59895833 C 2.7998818,-0.13985373 2.4711059,1.2045473 2.441809,1.2956931 2.360429,1.5756411 2.2823038,1.6147036 1.7256632,1.6244692 c -0.1302083,0 -0.2311198,0 -0.2311198,0.1985677 0,0.00977 0,0.1106771 0.1302083,0.1106771 0.3190105,0 0.6673177,-0.029297 0.9960938,-0.029297 0.3385417,0 0.6966146,0.029297 1.0253906,0.029297 0.052083,0 0.1790365,0 0.1790365,-0.1985677 0,-0.1106771 -0.097656,-0.1106771 -0.2571615,-0.1106771 -0.4785156,0 -0.4785156,-0.068359 -0.4785156,-0.1595052 0,-0.068359 0.019531,-0.1302084 0.039063,-0.218099 z m -2.7604167,4.18294274 c -0.5989583,0 -0.6380208,-0.76497396 -0.6380208,-0.93424474 0,-0.4785157 0.2897136,-1.5657553 0.4589844,-1.9856771 0.3059896,-0.7356771 0.8268229,-1.155599 1.2337239,-1.155599 0.6477865,0 0.7877605,0.8072917 0.7877605,0.8789063 0,0.058594 -0.546875,2.2395833 -0.5794271,2.281901 -0.1464844,0.27669271 -0.7063802,0.91471354 -1.2630209,0.91471354 z m 0,0"
         style="fill:#000000;fill-opacity:1;fill-rule:nonzero;stroke:none"
         aria-label="q"
         transform="matrix(0.46159652,0,0,0.46159652,110.05466,22.939884)"
         clip-path="url(#clipPath38-0)" /><path
         id="path41-1"
         d="m 4.9284028,-4.0042209 c 0.071615,-0.2701823 0.1822916,-0.4947917 0.7389323,-0.5078125 0.035807,0 0.1399739,-0.00651 0.1399739,-0.1529948 0,-0.042318 -0.032552,-0.097656 -0.1041666,-0.097656 -0.2213542,0 -0.4882813,0.029297 -0.7161459,0.029297 -0.2311198,0 -0.5240885,-0.029297 -0.7324218,-0.029297 -0.035807,0 -0.139974,0 -0.139974,0.1529948 0,0.091146 0.091146,0.097656 0.1529948,0.097656 0.328776,0.00651 0.4459635,0.1106771 0.4459635,0.2864583 0,0.035807 -0.00651,0.068359 -0.013021,0.097656 -0.1041667,0.4524739 -0.6152344,2.5520833 -0.7063802,2.766927 -0.390625,0.89192713 -1.2044271,1.25000005 -1.7773438,1.25000005 -0.4654948,0 -0.9602864,-0.23763021 -0.9602864,-0.92773435 0,-0.1692709 0.019531,-0.3352865 0.061849,-0.4947917 L 1.99546,-4.219065 c 0.061849,-0.2376302 0.07487,-0.2929687 0.6119791,-0.2929687 0.1204427,0 0.2083334,0 0.2083334,-0.1529948 0,-0.029297 -0.019531,-0.097656 -0.1106771,-0.097656 -0.2018229,0 -0.7096354,0.029297 -0.9147136,0.029297 -0.1171875,0 -0.3613281,0 -0.4785156,-0.00977 -0.1399739,-0.00651 -0.3092448,-0.019531 -0.43945311,-0.019531 -0.0423177,0 -0.14648437,0 -0.14648437,0.1529948 0,0.097656 0.0813802,0.097656 0.22135417,0.097656 0.00651,0 0.13997391,0 0.26692711,0.013021 0.1464843,0.016276 0.1595052,0.029297 0.1595052,0.097656 0,0.042318 -0.068359,0.3157552 -0.1106771,0.46875 l -0.1529948,0.6119791 -0.40039062,1.5983073 c -0.0683594,0.2864584 -0.0683594,0.3417969 -0.0683594,0.4817709 0,0.86263016 0.71289062,1.38020829 1.54947922,1.38020829 0.9602864,0 1.8945312,-0.78125 2.125651,-1.69596359 z m 0,0"
         style="fill:#000000;fill-opacity:1;fill-rule:nonzero;stroke:none"
         aria-label="U"
         transform="matrix(0.46159652,0,0,0.46159652,112.10737,24.076797)"
         clip-path="url(#clipPath42-2)" /></g><path
       id="path1"
       d="m 6.5654427,-2.2917938 c 0.1692708,0 0.3483073,0 0.3483073,-0.1985677 0,-0.1985678 -0.1790365,-0.1985678 -0.3483073,-0.1985678 h -5.390625 c -0.1692708,0 -0.34830728,0 -0.34830728,0.1985678 0,0.1985677 0.17903648,0.1985677 0.34830728,0.1985677 z m 0,0"
       style="display:inline;fill:#000000;fill-opacity:1;fill-rule:nonzero;stroke:none"
       aria-label="&lt;latexit sha1_base64=&quot;K7phoZ3QXjUefl86G9MfI08I0Ys=&quot;&gt;AAAB6HicbVDLSgNBEOyNrxhfUY9eBoPgxbArEj0GvXhMwDwgWcLspDcZMzu7zMwKIeQLvHhQxKuf5M2/cZLsQRMLGoqqbrq7gkRwbVz328mtrW9sbuW3Czu7e/sHxcOjpo5TxbDBYhGrdkA1Ci6xYbgR2E4U0igQ2ApGdzO/9YRK81g+mHGCfkQHkoecUWOl+kWvWHLL7hxklXgZKUGGWq/41e3HLI1QGiao1h3PTYw/ocpwJnBa6KYaE8pGdIAdSyWNUPuT+aFTcmaVPgljZUsaMld/T0xopPU4CmxnRM1QL3sz8T+vk5rwxp9wmaQGJVssClNBTExmX5M+V8iMGFtCmeL2VsKGVFFmbDYFG4K3/PIqaV6WvUq5Ur8qVW+zOPJwAqdwDh5cQxXuoQYNYIDwDK/w5jw6L86787FozTnZzDH8gfP5A3gfjLw=&lt;/latexit&gt;"
       transform="matrix(6.6824259,0,0,6.6824259,507.2891,336.71855)"
       clip-path="url(#clipPath2-36-5)" /><g
       id="qEk_up"
       transform="matrix(12.723421,0,0,12.723421,-496.61962,35.46434)"
       style="display:inline"><path
         id="path1-8"
         d="m 4.5048207,-4.2934996 c 0,-0.042318 -0.032552,-0.1009114 -0.1009114,-0.1009114 -0.1106771,0 -0.5078125,0.4003906 -0.6770833,0.6868489 -0.2213542,-0.5371093 -0.608724,-0.6966145 -0.9277344,-0.6966145 -1.1751302,0 -2.40234377,1.4746093 -2.40234377,2.9199218 0,0.97656253 0.58919271,1.59505211 1.31510417,1.59505211 0.4296875,0 0.8170573,-0.24088542 1.1783854,-0.59895833 -0.091146,0.34830729 -0.4199219,1.69270832 -0.4492187,1.78385412 -0.08138,0.279948 -0.1595052,0.3190105 -0.7161459,0.3287761 -0.1302083,0 -0.2311198,0 -0.2311198,0.1985677 0,0.00977 0,0.1106771 0.1302084,0.1106771 0.3190104,0 0.6673177,-0.029297 0.9960937,-0.029297 0.3385417,0 0.6966146,0.029297 1.0253906,0.029297 0.052083,0 0.1790365,0 0.1790365,-0.1985677 0,-0.1106771 -0.097656,-0.1106771 -0.2571615,-0.1106771 -0.4785156,0 -0.4785156,-0.068359 -0.4785156,-0.1595052 0,-0.068359 0.019531,-0.1302084 0.039063,-0.218099 z m -2.7604166,4.18294274 c -0.5989584,0 -0.6380209,-0.76497396 -0.6380209,-0.93424474 0,-0.4785157 0.2897136,-1.5657553 0.4589844,-1.9856771 0.3059896,-0.7356771 0.8268229,-1.155599 1.233724,-1.155599 0.6477864,0 0.7877604,0.8072917 0.7877604,0.8789063 0,0.058594 -0.546875,2.2395833 -0.5794271,2.281901 -0.1464844,0.27669271 -0.7063802,0.91471354 -1.2630208,0.91471354 z m 0,0"
         style="fill:#000000;fill-opacity:1;fill-rule:nonzero;stroke:none"
         aria-label="&lt;latexit sha1_base64=&quot;Gkkl3FouoPOyTysokYd8WzRwD5c=&quot;&gt;AAACMnicbZBNS8NAEIY39avWr6hHL8EieCpJkeqxKIJepFLTFtoaNptNu3SzibsboYT+Ji/+EsGDHhTx6o9w266grQMLz7wzw+y8fkKJkLb9YuQWFpeWV/KrhbX1jc0tc3unIeKUI+yimMa85UOBKWHYlURS3Eo4hpFPcdMfnI3rzXvMBYnZjRwmuBvBHiMhQVAqyTMv77zsfDC6dQoayhMIfpRAK3Ut1HXu6tzV+dXIM4t2yZ6ENQ+OhiLQUfPMp04QozTCTCIKhWg7diK7GeSSIIpHhU4qcALRAPZwWyGDERbdbHLyyDpQSmCFMVePSWui/p7IYCTEMPJVZwRlX8zWxuJ/tXYqw5NuRliSSszQdFGYUkvG1tg/KyAcI0mHCiDiRP3VQn3IIZLK5YIywZk9eR4a5ZJTKVWuj4rVU21HHuyBfXAIHHAMquAC1IALEHgAz+ANvBuPxqvxYXxOW3OGntkFf8L4+gbROqi0&lt;/latexit&gt;q"
         transform="matrix(0.46159652,0,0,0.46159652,72.087883,22.939884)"
         clip-path="url(#clipPath2-7-2)" /><path
         id="path5"
         d="m 5.5208741,-1.6116428 c 0.042318,-0.091146 0.042318,-0.1171875 0.042318,-0.1236979 0,-0.042318 -0.026042,-0.097656 -0.1171875,-0.097656 -0.013021,0 -0.048828,0 -0.078125,0.026042 -0.013021,0.016276 -0.019531,0.022787 -0.1041666,0.2018229 -0.452474,1.0058594 -0.8072917,1.35416669 -1.9433594,1.35416669 h -1.188151 c -0.2148438,0 -0.2213542,-0.00651 -0.2213542,-0.0716146 0,-0.00651 0,-0.0390625 0.026042,-0.14648437 l 0.46875,-1.86848962 h 0.78125 c 0.5501302,0 0.6347656,0.091146 0.6347656,0.3222657 0,0.078125 -0.022787,0.1953125 -0.048828,0.3125 -0.022787,0.065104 -0.022787,0.071615 -0.022787,0.084635 0,0.013021 0.00977,0.097656 0.1204427,0.097656 0.097656,0 0.1041667,-0.035807 0.1334635,-0.1529948 l 0.3808594,-1.5266927 c 0.022786,-0.084635 0.022786,-0.097656 0.022786,-0.1041666 0,-0.071615 -0.055339,-0.097656 -0.1204427,-0.097656 -0.091146,0 -0.097656,0.032552 -0.139974,0.1790365 C 4.0039467,-2.6793508 3.7923582,-2.588205 3.1999103,-2.588205 H 2.4674887 l 0.4199219,-1.656901 c 0.055338,-0.218099 0.061849,-0.2376302 0.3548177,-0.2376302 H 4.378296 c 0.9147135,0 1.1425781,0.188802 1.1425781,0.8072916 0,0.1822917 -0.026042,0.390625 -0.026042,0.4264323 0,0.055339 0.019531,0.1171875 0.1171875,0.1171875 0.1041666,0 0.1139323,-0.061849 0.1269531,-0.1790364 L 5.862671,-4.5250543 C 5.8854575,-4.7333876 5.8366293,-4.7333876 5.6608481,-4.7333876 H 1.8262127 c -0.139974,0 -0.2213542,0 -0.2213542,0.1529948 0,0.097656 0.07487,0.097656 0.2278646,0.097656 0.1139323,0 0.1399739,0 0.2669271,0.013021 0.1399739,0.013021 0.1529948,0.029297 0.1529948,0.097656 0,0.048828 -0.022786,0.1171875 -0.029297,0.1529948 l -0.9114583,3.64583336 c -0.071615,0.2734375 -0.078125,0.32226563 -0.62174483,0.32226563 -0.12369792,0 -0.20833334,0 -0.20833334,0.15299479 0,0.0976562499 0.0846354,0.0976562499 0.20833334,0.0976562499 H 4.628947 c 0.1757813,0 0.1822917,0 0.2376303,-0.1269531299 z m 2.8922526,-3.0175781 c 0.00977,-0.016276 0.029297,-0.1041667 0.029297,-0.1139323 0,-0.032552 -0.029297,-0.097656 -0.1106771,-0.097656 -0.1399739,0 -0.719401,0.058594 -0.8919271,0.071615 -0.058594,0.00651 -0.15625,0.013021 -0.15625,0.1595052 0,0.097656 0.097656,0.097656 0.1822917,0.097656 0.3352865,0 0.3352865,0.048828 0.3352865,0.1041666 0,0.048828 -0.013021,0.091146 -0.029297,0.1529948 l -0.9830729,3.94856775 c -0.032552,0.12369791 -0.032552,0.13997395 -0.032552,0.15299479 0,0.10416666 0.08138,0.22135416 0.234375,0.22135416 0.1888021,0 0.2799479,-0.13671875 0.3222656,-0.29296875 0.013021,-0.0260417 0.3125,-1.25325525 0.3417969,-1.35091145 0.4947917,0.048828 0.8919271,0.2083333 0.8919271,0.5729167 0,0.0325521 0,0.0683593 -0.013021,0.13671871 -0.029297,0.10742188 -0.029297,0.13997396 -0.029297,0.21809896 0,0.49479167 0.406901,0.71614583 0.7389323,0.71614583 0.6770833,0 0.8854173,-1.0579427 0.8854173,-1.06445312 0,-0.0911459 -0.08789,-0.0911459 -0.110678,-0.0911459 -0.097656,0 -0.1041664,0.035807 -0.1399737,0.16601309 -0.08138,0.29947917 -0.2701823,0.79427083 -0.6119792,0.79427083 -0.1888021,0 -0.2441406,-0.17252604 -0.2441406,-0.36132812 0,-0.1171875 0,-0.13346354 0.042318,-0.3125 0.00651,-0.0227865 0.032552,-0.13997396 0.032552,-0.2180964 0,-0.6184896 -0.8365886,-0.7161458 -1.1295573,-0.7389323 0.2018229,-0.1236979 0.4622396,-0.3548177 0.5794271,-0.4589843 0.3548177,-0.3352865 0.703125,-0.6640625 1.09375,-0.6640625 0.084635,0 0.1757812,0.022786 0.2311198,0.091146 -0.2994792,0.048828 -0.3613282,0.2864583 -0.3613282,0.390625 0,0.1529948 0.1171875,0.2571614 0.2766928,0.2571614 0.188802,0 0.4003903,-0.1529947 0.4003903,-0.4459635 0,-0.2278646 -0.169271,-0.4882812 -0.5371091,-0.4882812 -0.4003906,0 -0.7617187,0.2864583 -1.1165365,0.6152343 -0.2929687,0.2799479 -0.5240885,0.4947917 -0.8105468,0.6119792 z m 0,0"
         style="fill:#000000;fill-opacity:1;fill-rule:nonzero;stroke:none"
         aria-label="Ek"
         transform="matrix(0.46159652,0,0,0.46159652,74.140603,24.076797)"
         clip-path="url(#clipPath6-8-7)" /></g><g
       id="qEd_down"
       transform="matrix(12.723421,0,0,12.723421,-539.64676,35.46434)"
       style="display:inline"><path
         id="path13"
         d="m 4.5055577,-4.2934996 c 0,-0.042318 -0.032552,-0.1009114 -0.1009114,-0.1009114 -0.1106771,0 -0.5078125,0.4003906 -0.6770834,0.6868489 -0.2213541,-0.5371093 -0.6087239,-0.6966145 -0.9277343,-0.6966145 -1.1751302,0 -2.40234379,1.4746093 -2.40234379,2.9199218 0,0.97656253 0.58919271,1.59505211 1.31510419,1.59505211 0.4296875,0 0.8170573,-0.24088542 1.1783854,-0.59895833 -0.091146,0.34830729 -0.4199219,1.69270832 -0.4492188,1.78385412 -0.08138,0.279948 -0.1595052,0.3190105 -0.7161458,0.3287761 -0.1302083,0 -0.2311198,0 -0.2311198,0.1985677 0,0.00977 0,0.1106771 0.1302084,0.1106771 0.3190104,0 0.6673177,-0.029297 0.9960937,-0.029297 0.3385417,0 0.6966146,0.029297 1.0253906,0.029297 0.052083,0 0.1790365,0 0.1790365,-0.1985677 0,-0.1106771 -0.097656,-0.1106771 -0.2571615,-0.1106771 -0.4785156,0 -0.4785156,-0.068359 -0.4785156,-0.1595052 0,-0.068359 0.019531,-0.1302084 0.039063,-0.218099 z m -2.7604166,4.18294274 c -0.5989584,0 -0.6380209,-0.76497396 -0.6380209,-0.93424474 0,-0.4785157 0.2897136,-1.5657553 0.4589844,-1.9856771 0.3059896,-0.7356771 0.8268229,-1.155599 1.233724,-1.155599 0.6477864,0 0.7877604,0.8072917 0.7877604,0.8789063 0,0.058594 -0.546875,2.2395833 -0.5794271,2.281901 -0.1464844,0.27669271 -0.7063802,0.91471354 -1.2630208,0.91471354 z m 0,0"
         style="fill:#000000;fill-opacity:1;fill-rule:nonzero;stroke:none"
         aria-label="q"
         transform="matrix(0.46159652,0,0,0.46159652,86.472615,22.939884)"
         clip-path="url(#clipPath14-0)" /><path
         id="path17"
         d="m 5.5207973,-1.6116428 c 0.042318,-0.091146 0.042318,-0.1171875 0.042318,-0.1236979 0,-0.042318 -0.026042,-0.097656 -0.1171875,-0.097656 -0.013021,0 -0.048828,0 -0.078125,0.026042 -0.013021,0.016276 -0.019531,0.022787 -0.1041666,0.2018229 -0.452474,1.0058594 -0.8072917,1.35416669 -1.9433594,1.35416669 H 2.1321254 c -0.2148437,0 -0.2213541,-0.00651 -0.2213541,-0.0716146 0,-0.00651 0,-0.0390625 0.026042,-0.14648437 l 0.46875,-1.86848962 h 0.78125 c 0.5501302,0 0.6347657,0.091146 0.6347657,0.3222657 0,0.078125 -0.022787,0.1953125 -0.048828,0.3125 -0.022786,0.065104 -0.022786,0.071615 -0.022786,0.084635 0,0.013021 0.00977,0.097656 0.1204427,0.097656 0.097656,0 0.1041667,-0.035807 0.1334635,-0.1529948 l 0.3808594,-1.5266927 c 0.022786,-0.084635 0.022786,-0.097656 0.022786,-0.1041666 0,-0.071615 -0.055339,-0.097656 -0.1204427,-0.097656 -0.091146,0 -0.097656,0.032552 -0.139974,0.1790365 C 4.0038707,-2.6793508 3.7922822,-2.588205 3.1998343,-2.588205 H 2.4674119 l 0.4199219,-1.656901 c 0.055338,-0.218099 0.061849,-0.2376302 0.3548177,-0.2376302 h 1.1360677 c 0.9147135,0 1.1425781,0.188802 1.1425781,0.8072916 0,0.1822917 -0.026042,0.390625 -0.026042,0.4264323 0,0.055339 0.019531,0.1171875 0.1171875,0.1171875 0.1041667,0 0.1139323,-0.061849 0.1269532,-0.1790364 L 5.8625942,-4.5250543 C 5.8853806,-4.7333876 5.8365525,-4.7333876 5.6607713,-4.7333876 H 1.8261359 c -0.139974,0 -0.2213542,0 -0.2213542,0.1529948 0,0.097656 0.07487,0.097656 0.2278646,0.097656 0.1139323,0 0.1399739,0 0.2669271,0.013021 0.1399739,0.013021 0.1529947,0.029297 0.1529947,0.097656 0,0.048828 -0.022786,0.1171875 -0.029297,0.1529948 l -0.9114584,3.64583336 c -0.071615,0.2734375 -0.078125,0.32226563 -0.62174476,0.32226563 -0.12369791,0 -0.20833333,0 -0.20833333,0.15299479 0,0.0976562499 0.0846354,0.0976562499 0.20833333,0.0976562499 H 4.6288702 c 0.1757813,0 0.1822917,0 0.2376302,-0.1269531299 z m 4.6931967,-3.0175781 c 0.0065,-0.016276 0.0293,-0.1041667 0.0293,-0.1139323 0,-0.032552 -0.0293,-0.097656 -0.113932,-0.097656 -0.1367192,0 -0.7161463,0.058594 -0.8919276,0.071615 -0.055338,0.00651 -0.1529948,0.013021 -0.1529948,0.1595052 0,0.097656 0.097656,0.097656 0.1822917,0.097656 0.3352865,0 0.3352865,0.048828 0.3352865,0.1041666 0,0.048828 -0.016276,0.091146 -0.029297,0.1529948 L 9.1755825,-2.6630751 C 9.0290981,-2.8941949 8.7914679,-3.0764865 8.4561814,-3.0764865 c -0.8919271,0 -1.796875,0.9830729 -1.796875,1.9889322 0,0.67708338 0.452474,1.155599 1.0514323,1.155599 0.3776042,0 0.7128906,-0.21484375 0.9895833,-0.48828125 0.1334636,0.41992187986 0.5371094,0.48828125 0.7194011,0.48828125 0.250651,0 0.4264323,-0.15299479 0.5501302,-0.36783854 0.1529947,-0.2734375 0.2441407,-0.67057291 0.2441407,-0.69661458 0,-0.0911459 -0.09115,-0.0911459 -0.110677,-0.0911459 -0.09766,0 -0.1041668,0.026042 -0.152995,0.21484024 -0.084635,0.33528645 -0.2180989,0.7454427 -0.5110677,0.7454427 -0.1790364,0 -0.2278645,-0.15299479 -0.2278645,-0.34179687 0,-0.13020833 0.013021,-0.19205729 0.032552,-0.28320313 z m -1.4843751,3.7565104 c -0.048828,0.1953125 -0.2018229,0.33528645 -0.3548177,0.46875 -0.065104,0.0553385 -0.3417969,0.2766927 -0.641276,0.2766927 -0.2604167,0 -0.5110677,-0.17903645 -0.5110677,-0.67382812 0,-0.37109378 0.2018229,-1.13606768 0.3645833,-1.41601558 0.3190104,-0.5598959 0.6738281,-0.6640625 0.8691406,-0.6640625 0.4882813,0 0.6217448,0.5305989 0.6217448,0.6087239 0,0.026042 -0.013021,0.07487 -0.019531,0.097656 z m 0,0"
         style="fill:#000000;fill-opacity:1;fill-rule:nonzero;stroke:none"
         aria-label="Ed"
         transform="matrix(0.46159652,0,0,0.46159652,88.525335,24.076797)"
         clip-path="url(#clipPath18-9)" /></g></g></svg>
